<?xml version="1.0" encoding="utf-8"?>
<!-- Generator: Adobe Illustrator 23.0.3, SVG Export Plug-In . SVG Version: 6.00 Build 0)  -->
<svg version="1.1" id="Layer_1" xmlns="http://www.w3.org/2000/svg" xmlns:xlink="http://www.w3.org/1999/xlink" x="0px" y="0px"
	 viewBox="0 0 516.25 208" style="enable-background:new 0 0 516.25 208;" xml:space="preserve">
<style type="text/css">
	.st0{fill-rule:evenodd;clip-rule:evenodd;fill:#E31E24;}
	.st1{fill-rule:evenodd;clip-rule:evenodd;fill:#00A0E3;}
</style>
<g>
	<path class="st0" d="M16.34,189.04c-10.9-28.3,0.43-56.2,18.15-77.88c4.13-5.05,8.33-10.38,12.63-15.08l13.35-14.55l27.6-28.18
		c1.58-0.85,4.78,3.13,5.55,4.2c7.93,11.18-6.8,24.23-14.65,30.05c-4.18,3.1-7.48,5.15-11.78,7.9c0.48,0.93,8.6,9.63,9.48,10.6
		c2.9-0.55,14.33-8.6,17.15-10.95c4.13-3.45,7.2-6.45,10.13-10.85c1.03-1.53,1.5-2.9,2.43-4.6l0.9-3.1c0.23-0.9,0.4-2.45,0.4-3.5
		c0.05-5.03-2.9-10.2-6.38-13.65c-2.13-2.1-4.05-3.73-6.73-5.5c-0.83-0.55-3-1.75-3.6-2.3c-1.48-1.38,0.13-2.75,0.93-3.83
		c1.7-2.3,3.33-4.65,4.85-7.35c3.93-6.88,5.55-11.63,1.85-18.25c-2.6-4.68-7.3-9.7-12.73-11.73c-4.9-1.85-9.98-0.83-14,2.28
		c-1.03,0.8-1.65,2.48-1.88,4.25c-1.3,9.75,6.33,20.75,6.88,23.05c0.55,2.2-0.93,2.95-1.88,3.93c-7.9,8.23-15.9,16.68-23.53,25.15
		c-7.65,8.53-15.23,17.23-22.4,26.1c-1.85,2.3-3.58,4.5-5.38,6.85c-3.5,4.6-6.9,9.23-10,14.45c-5.88,10.05-9.98,24.68-9,39.33
		c0.83,12.35,3.65,22.68,9.38,33.18c0.4,0.75,1.58,3,2.18,3.63c0.03,0.03,0.05,0.05,0.08,0.07l8.15,11.3
		C21.29,198.71,18.54,194.74,16.34,189.04L16.34,189.04z M82.89,20.9c1.55-0.33,4.08,0.13,5.18,0.85c1.73,1.18,1.23,2.8,0.83,4.85
		c-2.28,11.98-7.65,8.7-11.23,1.28C76.12,24.68,79.04,21.68,82.89,20.9z"/>
	<path class="st1" d="M134.25,57.15h-9.63c-0.2,5.58-0.02,11.48-0.02,17.08v4.43c0,11.4-0.18,6.05,0,17.43
		c0.18,11.18,1.65,16.33,9.65,23.75V57.15z"/>
	<path class="st0" d="M106.42,66.43l0.03,0.13v12.98l-0.05,0.15c0.02,0.33,0.02,0.65,0.05,0.98v20.98c0,0.95,0,1.9,0,2.83
		c0,10.78,1.25,9.88,9.68,15.38c0-9.75,0-19.53,0-29.28V59.8l8.53,0.03h9.63l20.6-0.05c-0.3-1.25-2.3-3.75-3.03-4.63
		c-2.28-2.75-6.08-5-9.78-5.9c-2.88-0.7-4.43-0.4-7.53-0.48l-9.9,0.03l-8.35,0.03h-10.08h-5.53c-0.38,3.65,2.88,7.78,4.9,9.55
		c0.8,0.7,0.83,0.58,0.83,2.03c0,1,0,2,0,3l0,0v1.4C106.42,65.38,106.42,65.9,106.42,66.43z"/>
	<path class="st1" d="M106.22,48.83L106.22,48.83c0,0-0.05-7.03,2.2-12.25c2.28-5.23,5.75-9.75,11.45-10.35
		c10.98-0.4,14.68,15.2,14.35,22.6h-18.08c0,0,0.78-10.03,4.23-10.23c0,0,3.25-0.23,4.25,10.2l-8.48,0.03
		C116.14,48.83,106.22,48.83,106.22,48.83z"/>
	<path class="st0" d="M31.49,172.06h13.62c1.59,0,3.19-0.15,4.78-0.46c1.59-0.32,3.09-0.8,4.51-1.46c1.4-0.66,2.64-1.51,3.69-2.55
		c1.04-1.03,1.84-2.28,2.35-3.74c0.52-1.46,0.69-3.12,0.5-5.02c-0.16-1.72-0.62-3.27-1.39-4.67c-0.77-1.39-1.75-2.68-2.96-3.86
		c-1.19-1.18-2.51-2.31-3.96-3.4c-1.45-1.09-2.92-2.17-4.42-3.27c-0.44-0.39-0.78-0.75-1.01-1.1c-0.23-0.35-0.38-0.64-0.44-0.87
		c0.06-0.51,0.37-0.89,0.91-1.14c0.55-0.25,1.34-0.38,2.39-0.38h9.18v-12.48H45.49c-0.75-0.01-1.6,0.05-2.55,0.17
		c-0.96,0.13-1.95,0.34-2.99,0.64c-1.02,0.32-2.03,0.75-3.01,1.31c-0.97,0.56-1.86,1.28-2.65,2.14c-0.79,0.88-1.42,1.93-1.91,3.18
		c-0.47,1.26-0.73,2.71-0.76,4.4c-0.02,1.45,0.24,2.78,0.8,4c0.56,1.22,1.35,2.4,2.37,3.54c1.01,1.14,2.21,2.3,3.57,3.49
		c1.36,1.18,2.83,2.47,4.4,3.85c0.81,0.66,1.36,1.28,1.67,1.84c0.3,0.56,0.44,1.05,0.42,1.46c-0.01,0.46-0.19,0.82-0.52,1.08
		c-0.34,0.26-0.74,0.44-1.2,0.55c-0.46,0.11-0.91,0.15-1.32,0.15H31.49V172.06L31.49,172.06z M65.06,172.06h13.93v-17.42h6.46v17.42
		h14v-44.4h-14v15.45h-6.46v-15.45H65.06V172.06L65.06,172.06z M105.84,172.06h13.74v-27.61c-0.01-0.94,0.05-1.79,0.18-2.55
		c0.14-0.77,0.42-1.38,0.87-1.86c0.43-0.46,1.1-0.73,1.99-0.78c0.68,0.01,1.26,0.16,1.74,0.46c0.48,0.3,0.84,0.7,1.1,1.2
		c0.26,0.51,0.39,1.07,0.39,1.69c0.01,0.56-0.14,1.08-0.42,1.57c-0.3,0.49-0.75,0.88-1.38,1.18c-0.64,0.31-1.47,0.46-2.5,0.48v10.77
		c0.59,0.02,1.12,0.07,1.58,0.15c0.46,0.07,0.87,0.23,1.19,0.46c0.34,0.24,0.59,0.61,0.76,1.12c0.18,0.5,0.26,1.19,0.26,2.07v11.65
		h13.87v-14.12c-0.02-2.23-0.47-4.05-1.37-5.49c-0.9-1.42-2.12-2.39-3.69-2.87c0.95-0.6,1.74-1.35,2.39-2.25
		c0.63-0.9,1.12-1.9,1.44-3c0.33-1.1,0.49-2.24,0.49-3.43c0-1.35-0.2-2.7-0.61-4.03c-0.41-1.34-1.05-2.61-1.88-3.8
		c-0.84-1.19-1.9-2.25-3.19-3.18c-1.28-0.92-2.8-1.65-4.54-2.17c-1.74-0.53-3.72-0.8-5.93-0.81c-2.28,0-4.41,0.34-6.4,1.01
		c-1.99,0.68-3.73,1.7-5.24,3.08c-1.5,1.38-2.68,3.13-3.54,5.26c-0.84,2.11-1.29,4.61-1.3,7.49V172.06L105.84,172.06z M173.1,172.06
		v-11.78h-5.57c-1.3-0.01-2.44-0.18-3.44-0.51c-0.99-0.33-1.84-0.75-2.54-1.27c-0.71-0.52-1.27-1.07-1.69-1.65
		c-0.42-0.58-0.72-1.13-0.88-1.65h14.12v-10.64h-14.12c0.56-1.34,1.3-2.37,2.23-3.11c0.93-0.74,1.98-1.26,3.17-1.54
		c1.19-0.28,2.45-0.42,3.79-0.41h4.94v-11.84h-7.28c-2.7,0.01-5.19,0.4-7.46,1.17c-2.27,0.76-4.3,1.83-6.09,3.19
		c-1.78,1.36-3.3,2.94-4.56,4.75s-2.22,3.75-2.88,5.84c-0.66,2.09-1.01,4.24-1.05,6.46c-0.05,2.26,0.22,4.49,0.8,6.69
		c0.59,2.21,1.48,4.29,2.68,6.24c1.19,1.96,2.69,3.68,4.49,5.19c1.79,1.51,3.88,2.69,6.25,3.55c2.38,0.87,5.02,1.3,7.95,1.32H173.1
		L173.1,172.06z M207.11,172.06v-11.78h-5.57c-1.3-0.01-2.44-0.18-3.44-0.51c-0.99-0.33-1.84-0.75-2.54-1.27
		c-0.71-0.52-1.27-1.07-1.69-1.65c-0.42-0.58-0.72-1.13-0.88-1.65h14.12v-10.64h-14.12c0.56-1.34,1.3-2.37,2.23-3.11
		c0.93-0.74,1.98-1.26,3.17-1.54c1.19-0.28,2.45-0.42,3.79-0.41h4.94v-11.84h-7.28c-2.7,0.01-5.19,0.4-7.46,1.17
		c-2.27,0.76-4.3,1.83-6.09,3.19c-1.78,1.36-3.3,2.94-4.56,4.75c-1.26,1.81-2.22,3.75-2.88,5.84c-0.66,2.09-1.01,4.24-1.05,6.46
		c-0.05,2.26,0.22,4.49,0.8,6.69c0.59,2.21,1.48,4.29,2.68,6.24c1.19,1.96,2.69,3.68,4.49,5.19c1.79,1.51,3.88,2.69,6.25,3.55
		c2.38,0.87,5.02,1.3,7.95,1.32H207.11z"/>
	<path class="st1" d="M322.12,170.06v-10.71h1.21v10.71H322.12L322.12,170.06z M322.12,143.17h4.98v26.9h11.68v-26.9h6.29v-10.71
		h-22.95V143.17L322.12,143.17z M347.49,170.06h11.89v-37.71h-11.89V170.06L347.49,170.06z M380.79,170.06h11.78v-23.46
		c0-1.1,0.1-1.94,0.3-2.51c0.2-0.58,0.5-0.97,0.9-1.17c0.4-0.22,0.9-0.3,1.49-0.3c0.57,0.01,1.05,0.12,1.42,0.36
		c0.38,0.23,0.65,0.56,0.84,0.95c0.18,0.4,0.27,0.83,0.27,1.33c0,0.54-0.14,1.05-0.41,1.53c-0.28,0.49-0.7,0.89-1.26,1.18
		c-0.56,0.3-1.26,0.41-2.1,0.35v10.38c0.11,0,0.24,0,0.39,0.02c0.15,0.01,0.31,0.04,0.47,0.09c2.16-0.03,4.04-0.31,5.64-0.85
		c1.61-0.54,2.96-1.28,4.05-2.22c1.09-0.94,1.97-2.03,2.61-3.25c0.65-1.22,1.09-2.54,1.33-3.95c0.24-1.4,0.3-2.84,0.2-4.31
		c-0.19-2.06-0.71-3.89-1.56-5.49c-0.85-1.61-1.95-2.94-3.33-4.03c-1.36-1.09-2.91-1.88-4.63-2.4c-1.73-0.51-3.56-0.72-5.5-0.62
		c-2.23,0.13-4.16,0.59-5.78,1.42c-1.63,0.83-2.97,1.93-4.02,3.29c-1.06,1.36-1.84,2.92-2.35,4.66c-0.51,1.74-0.76,3.59-0.76,5.53
		V170.06L380.79,170.06z M411.56,170.06h11.78v-24.69c0.01-0.63,0.13-1.16,0.37-1.58c0.24-0.42,0.56-0.74,0.95-0.95
		c0.39-0.22,0.81-0.32,1.26-0.32c0.51,0,0.97,0.11,1.38,0.32c0.41,0.21,0.74,0.53,0.99,0.95c0.24,0.42,0.37,0.95,0.38,1.58v3.55
		h-3.55v9.58h3.55v11.57h11.78v-23.62c-0.01-2.12-0.31-4.01-0.89-5.63c-0.58-1.63-1.37-3.03-2.37-4.19c-1-1.17-2.12-2.12-3.37-2.85
		c-1.25-0.73-2.56-1.26-3.91-1.6c-1.35-0.33-2.68-0.49-3.99-0.47c-1.82,0.01-3.48,0.28-4.99,0.8c-1.51,0.53-2.83,1.26-4,2.19
		c-1.17,0.92-2.14,2-2.94,3.22c-0.8,1.22-1.41,2.53-1.82,3.93c-0.41,1.39-0.62,2.82-0.62,4.29V170.06L411.56,170.06z M469.13,170.06
		v-10.71l-3.44-0.11c-1.46-0.01-2.75-0.24-3.86-0.68c-1.1-0.45-2.03-1.05-2.77-1.81c-0.74-0.76-1.3-1.61-1.69-2.57
		c-0.38-0.95-0.59-1.93-0.62-2.95c0.03-1.03,0.23-2.03,0.61-2.99c0.38-0.96,0.93-1.82,1.66-2.58c0.72-0.76,1.61-1.37,2.67-1.82
		c1.06-0.45,2.28-0.67,3.67-0.68h3.77v-10.81h-5.43c-2.51,0.01-4.76,0.37-6.77,1.06c-2.01,0.7-3.77,1.66-5.28,2.89
		c-1.51,1.22-2.77,2.64-3.78,4.25c-1.01,1.61-1.78,3.33-2.3,5.16c-0.52,1.84-0.79,3.71-0.81,5.63c0.02,1.88,0.29,3.73,0.8,5.54
		c0.51,1.81,1.26,3.51,2.26,5.09c1,1.59,2.24,2.99,3.74,4.2c1.49,1.21,3.23,2.15,5.22,2.84c1.98,0.69,4.22,1.04,6.71,1.05H469.13
		L469.13,170.06z M473.81,170.06h11.68v-15.33c0.58-0.01,1.16,0.01,1.7,0.05c0.56,0.05,1.06,0.15,1.51,0.31
		c0.45,0.17,0.8,0.43,1.07,0.79c0.26,0.36,0.39,0.85,0.4,1.48v12.7h11.78v-13.88c-0.01-0.99-0.17-1.86-0.48-2.62
		c-0.3-0.75-0.71-1.4-1.2-1.95c-0.48-0.55-1-1-1.56-1.36c-0.55-0.36-1.06-0.64-1.54-0.83c-0.49-0.2-0.88-0.33-1.18-0.39
		c0.69-0.49,1.26-1.11,1.71-1.86c0.46-0.74,0.85-1.59,1.2-2.53c0.35-0.95,0.7-1.96,1.07-3.04l2.96-9.15h-11.78l-3.17,9.25
		c-0.12,0.43-0.26,0.91-0.41,1.42c-0.16,0.52-0.34,1-0.54,1.47c-0.21,0.46-0.43,0.82-0.68,1.07c-0.25,0.26-0.54,0.34-0.84,0.24
		v-13.45h-11.68V170.06z M220.37,170.06h11.35l1.29-22.49l4.9,19.85c0.15,0.59,0.42,1.09,0.81,1.5c0.38,0.41,0.84,0.72,1.39,0.93
		c0.54,0.21,1.11,0.31,1.73,0.31c0.64,0,1.25-0.12,1.83-0.36c0.58-0.23,1.08-0.59,1.51-1.06c0.42-0.47,0.71-1.06,0.86-1.76
		l4.73-19.42l1.35,22.49h11.35l-2.53-30.34c-0.14-1.6-0.44-2.93-0.91-3.98c-0.47-1.04-1.05-1.86-1.75-2.45
		c-0.71-0.59-1.49-1-2.35-1.25c-0.86-0.23-1.76-0.35-2.69-0.34c-0.77,0.01-1.52,0.05-2.21,0.1c-0.7,0.06-1.36,0.19-1.98,0.39
		c-0.63,0.21-1.2,0.53-1.73,0.98c-0.53,0.45-1.01,1.07-1.44,1.86c-0.43,0.8-0.81,1.82-1.13,3.08l-2.8,11.57l-3.28-12.7
		c-0.18-0.74-0.42-1.44-0.74-2.09c-0.31-0.65-0.75-1.21-1.32-1.7c-0.56-0.49-1.31-0.86-2.25-1.13c-0.94-0.26-2.12-0.38-3.55-0.36
		c-1.26,0.02-2.37,0.19-3.31,0.5c-0.94,0.31-1.74,0.82-2.39,1.52c-0.65,0.7-1.17,1.64-1.54,2.82c-0.39,1.17-0.64,2.64-0.77,4.4
		L220.37,170.06L220.37,170.06z M322.12,132.46v10.71h-1.21v-10.71H322.12L322.12,132.46z M322.12,159.36h-4.76
		c-0.71,0.01-1.35-0.08-1.91-0.27c-0.56-0.18-1.01-0.51-1.34-0.99c-0.33-0.48-0.5-1.16-0.51-2.03v-23.72h-11.78v25.93
		c0.01,1.82,0.27,3.45,0.79,4.9c0.52,1.45,1.26,2.69,2.21,3.71c0.95,1.02,2.08,1.8,3.38,2.35c1.31,0.54,2.75,0.81,4.33,0.82h9.6
		V159.36L322.12,159.36z M267.44,132.35v25.12c0.01,1.89,0.35,3.64,1.02,5.24c0.67,1.6,1.64,3,2.9,4.2
		c1.26,1.19,2.78,2.13,4.55,2.78c1.77,0.66,3.76,1,5.95,1.01c2.03,0.02,3.91-0.29,5.65-0.92c1.74-0.63,3.25-1.53,4.56-2.73
		c1.3-1.18,2.31-2.59,3.04-4.23c0.73-1.64,1.1-3.46,1.11-5.46v-25.02h-11.67v25.02c-0.01,0.59-0.13,1.08-0.38,1.46
		c-0.24,0.39-0.57,0.68-0.97,0.88c-0.4,0.2-0.85,0.31-1.35,0.35c-0.47-0.04-0.9-0.15-1.31-0.35c-0.39-0.2-0.71-0.49-0.95-0.88
		c-0.24-0.39-0.37-0.87-0.38-1.46v-25.02H267.44z"/>
</g>
</svg>
